PathFileType	4	(X/Y/Z)	D:\Share\Shared_Data\Ergonomics\Sit To Stand Pertubation\S0\Free STS.trc
DataRate	CameraRate	NumFrames	NumMarkers	Units	OrigDataRate	OrigDataStartFrame	OrigNumFrames	
100	100	19	18	m	100	1767	191
Frame#	Time	R_Toe			R_ASIS			R_Pelvis			V_Sacral			L_Pelvis			L_ASIS			Clavical			R_Acromium			L_Acromium			Sternum			Torso			R_Thigh_Med			R_Thigh_Lat			R_Thigh			R_Shank_Med			R_Shank_Lat			R_Shank			R_Heel			
		X1	Y1	Z1	X2	Y2	Z2	X3	Y3	Z3	X4	Y4	Z4	X5	Y5	Z5	X6	Y6	Z6	X7	Y7	Z7	X8	Y8	Z8	X9	Y9	Z9	X10	Y10	Z10	X11	Y11	Z11	X12	Y12	Z12	X13	Y13	Z13	X14	Y14	Z14	X15	Y15	Z15	X16	Y16	Z16	X17	Y17	Z17	X18	Y18	Z18	

1767	4.09	0.38308905	0.042927364	0.14038416	0.20483525	0.86020544	0.16261502	0.098785103	0.92463507	0.21200076	-0.024404743	0.95582239	-0.018413208	0.11215892	0.91096118	-0.20234084	0.21903113	0.85239252	-0.15047607	0.44777536	1.1933984	0.0038122959	0.40266061	1.2830559	0.14278741	0.39809308	1.2910483	-0.13950117	0.43200748	1.0972268	-0.013842975	0.43351273	1.152127	-0.11640692	0.36701129	0.4734805	0.064099007	0.36314664	0.49456921	0.19745995	0.36582501	0.64745349	0.12511958	0.25903751	0.096117058	0.09997657	0.20188312	0.090433121	0.19055957	0.28827435	0.30396411	0.21060454	0.15603769	0.047084526	0.14667264
1768	4.1	0.38307614	0.042899529	0.14036877	0.20781328	0.86398492	0.1629257	0.10206404	0.92837189	0.21251285	-0.021315338	0.95968573	-0.017763083	0.11486209	0.91507843	-0.20199217	0.22160542	0.85624304	-0.15022751	0.44846948	1.2005526	0.003845475	0.40284552	1.2898572	0.14303685	0.39784259	1.2979211	-0.13955435	0.43332925	1.1042161	-0.013787569	0.43421106	1.1591552	-0.11656695	0.3667244	0.47363998	0.063910408	0.36301553	0.49468643	0.19720558	0.36732193	0.64763208	0.12524236	0.25887674	0.0961082	0.099995132	0.20184407	0.090397667	0.19061221	0.2881185	0.30402972	0.21057001	0.1559763	0.047024727	0.14680016
1769	4.11	0.38305432	0.042874493	0.14035211	0.21082597	0.8678147	0.16323392	0.10533106	0.93212421	0.2129865	-0.018214781	0.9635368	-0.017144646	0.11760266	0.91918848	-0.20165056	0.22419458	0.86012817	-0.14997313	0.4490726	1.2077521	0.0038703125	0.40292346	1.2966967	0.14327908	0.39746631	1.304829	-0.13962964	0.43457968	1.111252	-0.013749428	0.43482092	1.1662229	-0.11672236	0.36635025	0.47381781	0.063725441	0.36279315	0.49483887	0.1969451	0.36873611	0.6478244	0.12533289	0.25870248	0.096104202	0.10001965	0.20179539	0.09036129	0.19066898	0.28791925	0.30410165	0.21053944	0.15591025	0.04695916	0.14693167
1770	4.12	0.38302505	0.042852493	0.14033521	0.21388347	0.87169525	0.16354097	0.10858924	0.93588501	0.21342097	-0.015101089	0.96737012	-0.016561964	0.12038364	0.92328235	-0.20132104	0.22679269	0.86404791	-0.1497148	0.44958185	1.2149855	0.0038847523	0.40290082	1.3035647	0.14351349	0.39697403	1.3117614	-0.1397251	0.43576428	1.1183239	-0.013728696	0.43534518	1.173319	-0.11687383	0.36589191	0.47402002	0.063542946	0.36247757	0.49502759	0.19667622	0.37006754	0.64803247	0.12539597	0.25851505	0.096105141	0.10004948	0.20173592	0.090324799	0.19072906	0.28767465	0.30418234	0.21051213	0.15584033	0.046889595	0.14706563
1771	4.13	0.3829899	0.042833546	0.14031917	0.21699501	0.8756275	0.1638463	0.111843	0.93964331	0.21381708	-0.011973388	0.97117761	-0.016018681	0.12320581	0.92734857	-0.20100832	0.22940033	0.86799902	-0.14945653	0.44999786	1.2222427	0.0038879013	0.40278128	1.3104504	0.14373909	0.39637457	1.3187091	-0.13983804	0.43688824	1.125422	-0.013726051	0.43578656	1.1804333	-0.11702277	0.3653548	0.47425287	0.063362537	0.36207101	0.49525153	0.1963985	0.37131796	0.64825623	0.12543727	0.25831595	0.096111023	0.1000835	0.20166475	0.090289131	0.1907917	0.28738293	0.30427499	0.21048718	0.15576765	0.046818153	0.14719998
1772	4.14	0.38295087	0.042817497	0.14030542	0.22016766	0.8796131	0.16414749	0.11509637	0.94338696	0.21417546	-0.0088318739	0.97494983	-0.015517533	0.12606774	0.93137561	-0.20071585	0.23202397	0.87197565	-0.14920404	0.45032385	1.2295153	0.0038792706	0.40256583	1.317343	0.14395444	0.39567502	1.3256636	-0.13996509	0.43795651	1.1325394	-0.013742665	0.43614847	1.1875585	-0.11717116	0.36474396	0.47451981	0.063185146	0.36157919	0.49550897	0.19611507	0.37249164	0.64849353	0.12546201	0.25810806	0.096121841	0.10012015	0.20158191	0.090255157	0.19085587	0.28704199	0.30438351	0.21046387	0.15569388	0.046747166	0.14733258
1773	4.15	0.3829101	0.042804272	0.14029546	0.22340353	0.88365308	0.16444034	0.11835109	0.94710547	0.21449539	-0.0056776934	0.97867542	-0.015060516	0.12896642	0.93535254	-0.20044597	0.23467581	0.8759718	-0.14896439	0.45056314	1.236796	0.0038584032	0.40225308	1.3242308	0.14415756	0.39487991	1.3326152	-0.14010286	0.438974	1.1396692	-0.013780077	0.43643463	1.1946877	-0.11732112	0.36406226	0.47481976	0.063012802	0.36100955	0.49579846	0.19583167	0.37359631	0.64873962	0.12547324	0.25789474	0.096137733	0.10015767	0.2014882	0.090223518	0.19092041	0.28664996	0.30451193	0.21044138	0.1556214	0.046679081	0.14746106
1774	4.16	0.3828699	0.042793762	0.14029106	0.22669807	0.88774811	0.16471841	0.12160587	0.95079059	0.21477478	-0.0025128763	0.9823418	-0.014649025	0.13189838	0.93926984	-0.20019958	0.23737498	0.87998291	-0.14874513	0.45071649	1.2440768	0.0038249543	0.40183954	1.3311017	0.14434621	0.39399155	1.3395549	-0.1402484	0.43994559	1.1468059	-0.013839691	0.43664859	1.2018153	-0.11747466	0.3633132	0.47514822	0.062847801	0.36037021	0.49611844	0.19555345	0.3746423	0.64898792	0.12547162	0.25767944	0.09615889	0.10019436	0.20138522	0.090194542	0.19098416	0.28620557	0.30466324	0.2104189	0.15555309	0.046616001	0.1475831
1775	4.17	0.38283218	0.04278577	0.14029425	0.23004057	0.89189728	0.16497388	0.1248568	0.95443634	0.21501042	0.00065969628	0.98593536	-0.014283854	0.13486031	0.94311926	-0.19997586	0.24014355	0.88400665	-0.14855284	0.45078174	1.2513484	0.0037788661	0.40132019	1.3379438	0.14451907	0.39301028	1.3464719	-0.14039958	0.44087485	1.1539435	-0.013921866	0.43679373	1.2089359	-0.11763345	0.36250336	0.47549982	0.062692089	0.3596683	0.49646628	0.19528302	0.37564056	0.64923059	0.12545695	0.25746469	0.096185684	0.100229	0.20127464	0.090168266	0.19104599	0.28570865	0.30483923	0.21039534	0.15549167	0.046559452	0.14769672
1776	4.18	0.38279797	0.042779945	0.14030733	0.2334182	0.89609601	0.1652	0.1280984	0.95803955	0.21519835	0.0038365211	0.9894422	-0.013965432	0.13784946	0.94689435	-0.1997729	0.24299774	0.88804083	-0.14839178	0.45075589	1.2586014	0.0037207789	0.40069034	1.3447471	0.14467654	0.39193512	1.3533555	-0.14055518	0.4417627	1.1610754	-0.014025117	0.43687354	1.2160428	-0.11779832	0.36164145	0.4758692	0.062546902	0.35890848	0.49683868	0.19502141	0.37660031	0.64946106	0.1254299	0.25725204	0.096218552	0.1002613	0.201158	0.090144646	0.19110513	0.28515979	0.30504031	0.21036974	0.1554388	0.046510292	0.14780077
1777	4.19	0.38276743	0.042775726	0.14033249	0.2368213	0.90033557	0.16539313	0.13132474	0.96159845	0.21533504	0.0070138803	0.992849	-0.013694349	0.14086345	0.95058881	-0.19958972	0.2459435	0.89208051	-0.14826433	0.45063696	1.2658267	0.0036524534	0.39994604	1.3515018	0.14482054	0.39076434	1.3601934	-0.14071451	0.44260715	1.1681935	-0.014145885	0.4368912	1.2231283	-0.11796892	0.36073633	0.47625162	0.062412739	0.35809274	0.49723248	0.19476889	0.37752808	0.64967426	0.1253924	0.25704178	0.096257774	0.10029199	0.20103648	0.090123627	0.19116142	0.28456006	0.30526627	0.21034131	0.15539487	0.046468647	0.14789491
1778	4.2	0.38273984	0.042772667	0.14037144	0.24024614	0.90460364	0.1655517	0.13453186	0.96510999	0.21541866	0.010188331	0.99614404	-0.013471798	0.14390083	0.95419708	-0.19942761	0.24897894	0.89611798	-0.14817232	0.4504241	1.2730145	0.0035765872	0.39908392	1.3581989	0.14495343	0.38949677	1.3669731	-0.14087708	0.44340372	1.175288	-0.014278975	0.43684903	1.2301829	-0.1181437	0.35979565	0.47664322	0.06228933	0.35722171	0.49764554	0.19452545	0.37842737	0.64986719	0.12534733	0.25683307	0.096303261	0.10032255	0.20091109	0.090105103	0.19121519	0.28391107	0.30551572	0.21030939	0.15535934	0.046433998	0.1479796
1779	4.21	0.38271436	0.042770763	0.14042497	0.24369348	0.90888507	0.16567479	0.13771924	0.9685675	0.21544931	0.013357357	0.99931897	-0.013299537	0.14696126	0.95771442	-0.19928996	0.25209827	0.90014417	-0.14811812	0.45011716	1.2801549	0.0034962246	0.39810101	1.3648287	0.14507687	0.38813199	1.3736824	-0.14104222	0.44414554	1.1823495	-0.014418431	0.43674762	1.2371969	-0.1183204	0.35882458	0.4770408	0.062175617	0.35629504	0.49807623	0.19429042	0.37929935	0.65003882	0.12529811	0.2566243	0.096354668	0.1003548	0.20078273	0.090088875	0.19126704	0.28321619	0.30578549	0.21027306	0.15533105	0.046405556	0.14805629
1780	4.22	0.38269019	0.042770397	0.14049297	0.24716573	0.9131626	0.16576225	0.14088803	0.97196185	0.21542833	0.016519787	1.0023689	-0.013179317	0.15004539	0.96113745	-0.19918173	0.25529427	0.90414923	-0.14810411	0.4497157	1.2872379	0.003414274	0.39699554	1.3713817	0.14519127	0.38667084	1.3803104	-0.14120961	0.44482391	1.1893677	-0.014558568	0.43658545	1.2441609	-0.11849633	0.35782581	0.47744214	0.062069611	0.35531244	0.4985235	0.19406171	0.38014407	0.65018982	0.12524797	0.2564137	0.096411598	0.10039038	0.20065202	0.090074608	0.1913174	0.28248059	0.30607074	0.21023079	0.1553087	0.046382542	0.14812698
1781	4.23	0.38266675	0.042771748	0.14057425	0.25066429	0.91741956	0.16581454	0.14403786	0.97528503	0.21535741	0.01967576	1.0052932	-0.013112267	0.15315454	0.9644646	-0.19910851	0.25855945	0.9081236	-0.14813165	0.44921878	1.2942539	0.0033330381	0.39576849	1.3778503	0.14529634	0.38511566	1.3868484	-0.14137941	0.44542944	1.1963328	-0.014694996	0.43635968	1.2510659	-0.11866873	0.35680008	0.47784601	0.06196833	0.3542739	0.49898615	0.19383542	0.38096173	0.65032214	0.12519938	0.25619992	0.096473541	0.10043026	0.20051909	0.090061874	0.1913661	0.2817114	0.30636578	0.21017999	0.15529088	0.046364182	0.14819365
1782	4.24	0.38264386	0.042774445	0.14066653	0.25418916	0.92164221	0.16583209	0.14716676	0.97853101	0.21523869	0.022826546	1.0080936	-0.013098658	0.15629041	0.96769556	-0.19907465	0.26188748	0.91206018	-0.14820044	0.44862567	1.3011943	0.0032537479	0.39442386	1.3842288	0.1453916	0.38346994	1.3932896	-0.14155228	0.4459534	1.2032361	-0.014825347	0.43606683	1.2579033	-0.11883545	0.35574658	0.47825201	0.061867565	0.35318008	0.49946332	0.19360585	0.38175308	0.65043878	0.12515332	0.25598225	0.096539886	0.1004743	0.20038354	0.09005043	0.19141226	0.28091632	0.30666547	0.21011687	0.15527661	0.046350037	0.14825719
1783	4.25	0.3826218	0.042777702	0.14076671	0.25773831	0.92582227	0.16581392	0.15027467	0.98169366	0.21507495	0.025974308	1.0107745	-0.013137774	0.15945555	0.97083105	-0.19908156	0.26527454	0.91595428	-0.14830894	0.44793646	1.3080505	0.0031763856	0.39296747	1.3905128	0.14547661	0.3817384	1.3996283	-0.14172937	0.4463894	1.2100691	-0.014949354	0.43570459	1.264665	-0.11899532	0.35466394	0.47866113	0.061761387	0.35203235	0.49995456	0.19336584	0.38251978	0.65054407	0.12510861	0.25576157	0.09661026	0.10052099	0.20024471	0.090040565	0.19145401	0.28010226	0.30696628	0.21003615	0.15526556	0.046340427	0.14831709
1784	4.26	0.3826012	0.042780746	0.14087137	0.26130731	0.92995618	0.16575774	0.15336687	0.98476654	0.21487036	0.029121601	1.0133403	-0.013227916	0.16265231	0.97387274	-0.1991279	0.26871909	0.9198031	-0.14845517	0.44715231	1.3148147	0.00309975	0.39140451	1.396699	0.14555074	0.37992691	1.4058586	-0.14191255	0.4467348	1.2168237	-0.015068404	0.43527274	1.2713417	-0.1191487	0.35355087	0.47907507	0.061641747	0.35083279	0.50046045	0.19310739	0.3832637	0.65064264	0.12506121	0.25554222	0.096684921	0.10056712	0.20010207	0.090033478	0.19148856	0.27927255	0.30726715	0.20993153	0.15525783	0.046336323	0.14837149
1785	4.27	0.38258316	0.042783131	0.14097729	0.2648884	0.9340423	0.1656615	0.15645309	0.98774127	0.21463158	0.03227079	1.0157949	-0.013366629	0.16588208	0.97682318	-0.19921082	0.27222159	0.92360522	-0.14863617	0.44627588	1.3214791	0.0030218043	0.38973895	1.4027827	0.14561281	0.3780426	1.4119747	-0.14210385	0.44699167	1.2234927	-0.015184669	0.43477377	1.2779244	-0.11929736	0.35240735	0.47949664	0.061499142	0.34958398	0.50098276	0.19282269	0.38398596	0.65073938	0.12500399	0.25533289	0.096764755	0.10060793	0.19995566	0.090031227	0.19151221	0.27842548	0.30757019	0.20979669	0.15525378	0.046339008	0.14841736
